<svg width="12" height="12" viewBox="0 0 12 12" fill="none" xmlns="http://www.w3.org/2000/svg">
<g clip-path="url(#clip0)">
<path d="M10.1172 9.49997H4.36716C3.60864 9.49997 2.99222 8.88355 2.99222 8.12503V1.37503C2.99222 0.616516 3.60864 0 4.36716 0H8.62116C9.11472 0 9.59821 0.200043 9.94666 0.5495L10.9427 1.5455C11.2972 1.89999 11.4922 2.37103 11.4922 2.87146V8.12503C11.4922 8.88355 10.8757 9.49997 10.1172 9.49997V9.49997ZM4.36716 0.75C4.02264 0.75 3.74222 1.03052 3.74222 1.37503V8.12503C3.74222 8.46954 4.02264 8.74997 4.36716 8.74997H10.1172C10.4617 8.74997 10.7422 8.46954 10.7422 8.12503V2.87146C10.7422 2.57098 10.6252 2.28854 10.4127 2.07596L9.41666 1.07996C9.20719 0.870026 8.9177 0.75 8.62116 0.75H4.36716Z" fill="black"/>
<path d="M7.86722 12H1.86722C1.1087 12 0.492188 11.3835 0.492188 10.625V2.625C0.492188 1.86649 1.1087 1.24997 1.86722 1.24997H2.11716C2.32416 1.24997 2.49216 1.41797 2.49216 1.62497C2.49216 1.83197 2.32416 1.99997 2.11716 1.99997H1.86722C1.52271 1.99997 1.24219 2.28049 1.24219 2.625V10.625C1.24219 10.9695 1.52271 11.25 1.86722 11.25H7.86722C8.21173 11.25 8.49216 10.9695 8.49216 10.625V10.375C8.49216 10.168 8.66016 10 8.86716 10C9.07416 10 9.24216 10.168 9.24216 10.375V10.625C9.24216 11.3835 8.62573 12 7.86722 12Z" fill="black"/>
<path d="M9.11719 4.24997H5.36719C5.16019 4.24997 4.99219 4.08197 4.99219 3.87497C4.99219 3.66797 5.16019 3.49997 5.36719 3.49997H9.11719C9.32419 3.49997 9.49219 3.66797 9.49219 3.87497C9.49219 4.08197 9.32419 4.24997 9.11719 4.24997Z" fill="black"/>
<path d="M9.11719 5.74997H5.36719C5.16019 5.74997 4.99219 5.58197 4.99219 5.37497C4.99219 5.16797 5.16019 4.99997 5.36719 4.99997H9.11719C9.32419 4.99997 9.49219 5.16797 9.49219 5.37497C9.49219 5.58197 9.32419 5.74997 9.11719 5.74997Z" fill="black"/>
<path d="M9.11719 7.24997H5.36719C5.16019 7.24997 4.99219 7.08197 4.99219 6.87497C4.99219 6.66797 5.16019 6.49997 5.36719 6.49997H9.11719C9.32419 6.49997 9.49219 6.66797 9.49219 6.87497C9.49219 7.08197 9.32419 7.24997 9.11719 7.24997Z" fill="black"/>
</g>
<defs>
<clipPath id="clip0">
<rect width="12" height="12" fill="white"/>
</clipPath>
</defs>
</svg>
