<svg width="20" height="20" viewBox="0 0 20 20" fill="none" xmlns="http://www.w3.org/2000/svg">
<g clip-path="url(#clip0)">
<path d="M4.16672 10C4.16672 9.655 4.44672 9.375 4.79172 9.375L15.2083 9.375C15.5533 9.375 15.8333 9.655 15.8333 10C15.8333 10.345 15.5533 10.625 15.2083 10.625L4.79172 10.625C4.44672 10.625 4.16672 10.345 4.16672 10Z" fill="black"/>
<path d="M4.16672 10C4.16672 9.83994 4.22745 9.68002 4.34998 9.55826L7.68326 6.22498C7.92755 5.98083 8.32336 5.98083 8.5675 6.22498C8.81165 6.46912 8.81165 6.86493 8.5675 7.10922L5.67581 10.0008L8.5675 12.8925C8.81165 13.1366 8.81165 13.5326 8.5675 13.7767C8.32336 14.0208 7.92755 14.0208 7.68326 13.7767L4.34998 10.4433C4.22745 10.32 4.16672 10.1601 4.16672 10V10Z" fill="black"/>
</g>
<defs>
<clipPath id="clip0">
<rect width="20" height="20" fill="white" transform="translate(20) rotate(90)"/>
</clipPath>
</defs>
</svg>
