<svg width="512" height="512" viewBox="0 0 512 512" fill="none" xmlns="http://www.w3.org/2000/svg">
<g clip-path="url(#clip0)">
<path d="M453.332 512H58.668C26.3047 512 0 485.695 0 453.332V58.668C0 26.3047 26.3047 0 58.668 0H453.332C485.695 0 512 26.3047 512 58.668V453.332C512 485.695 485.695 512 453.332 512ZM58.668 32C43.9688 32 32 43.9688 32 58.668V453.332C32 468.031 43.9688 480 58.668 480H453.332C468.031 480 480 468.031 480 453.332V58.668C480 43.9688 468.031 32 453.332 32H58.668Z" fill="black"/>
<path d="M325.332 362.668H186.668C166.078 362.668 149.332 345.922 149.332 325.332V186.668C149.332 166.078 166.078 149.332 186.668 149.332H325.332C345.922 149.332 362.668 166.078 362.668 186.668V325.332C362.668 345.922 345.922 362.668 325.332 362.668ZM186.668 181.332C183.723 181.332 181.332 183.723 181.332 186.668V325.332C181.332 328.277 183.723 330.668 186.668 330.668H325.332C328.277 330.668 330.668 328.277 330.668 325.332V186.668C330.668 183.723 328.277 181.332 325.332 181.332H186.668Z" fill="black"/>
</g>
<defs>
<clipPath id="clip0">
<rect width="512" height="512" fill="white"/>
</clipPath>
</defs>
</svg>
