<svg width="12" height="13" viewBox="0 0 12 13" fill="none" xmlns="http://www.w3.org/2000/svg">
<g clip-path="url(#clip0)">
<path d="M0.384373 12.5C0.284683 12.5 0.18695 12.4609 0.114745 12.3881C0.0200863 12.2934 -0.0181125 12.156 0.0144963 12.0263L0.730864 9.15098C0.747634 9.08381 0.782293 9.02222 0.831113 8.9734L8.89544 0.909092C9.44085 0.363595 10.3287 0.363595 10.8742 0.909092L11.5937 1.62853C12.1392 2.17403 12.1392 3.06192 11.5937 3.60732L3.52944 11.6716C3.48053 11.7205 3.41894 11.7556 3.35186 11.7719L0.476516 12.4882C0.445957 12.4964 0.415398 12.5 0.384373 12.5V12.5ZM1.44528 9.43794L0.907976 11.5943L3.06435 11.057L11.0543 3.06751C11.3022 2.81968 11.3022 2.41571 11.0543 2.16788L10.3349 1.44844C10.0866 1.20015 9.68253 1.20061 9.43526 1.44844L1.44528 9.43794ZM3.25972 11.402H3.26484H3.25972Z" fill="black"/>
<path d="M10.083 4.96029C9.98522 4.96029 9.88749 4.92311 9.81323 4.84839L7.65435 2.68998C7.50519 2.54082 7.50519 2.29914 7.65435 2.15007C7.80342 2.001 8.0451 2.001 8.19416 2.15007L10.3531 4.30904C10.5022 4.45811 10.5022 4.69979 10.3531 4.84886C10.2778 4.92311 10.1801 4.96029 10.083 4.96029Z" fill="black"/>
<path d="M3.25964 11.7836C3.16191 11.7836 3.06427 11.7464 2.99001 11.6716L0.831039 9.51273C0.681971 9.36357 0.681971 9.12189 0.831039 8.97282C0.980108 8.82376 1.22178 8.82376 1.37095 8.97282L3.52983 11.1318C3.67889 11.2809 3.67889 11.5225 3.52983 11.6716C3.45501 11.7464 3.35737 11.7836 3.25964 11.7836V11.7836Z" fill="black"/>
</g>
<defs>
<clipPath id="clip0">
<rect width="12" height="12" fill="white" transform="translate(0 0.5)"/>
</clipPath>
</defs>
</svg>
