<svg width="512" height="512" viewBox="0 0 512 512" fill="none" xmlns="http://www.w3.org/2000/svg">
<g clip-path="url(#clip0)">
<path d="M197.332 192H101.332C80.7461 192 64 175.254 64 154.668V101.332C64 80.7461 80.7461 64 101.332 64H197.332C217.922 64 234.668 80.7461 234.668 101.332V154.668C234.668 175.254 217.922 192 197.332 192ZM101.332 96C98.3906 96 96 98.3906 96 101.332V154.668C96 157.609 98.3906 160 101.332 160H197.332C200.277 160 202.668 157.609 202.668 154.668V101.332C202.668 98.3906 200.277 96 197.332 96H101.332Z" fill="black"/>
<path d="M410.668 448H314.668C294.078 448 277.332 431.254 277.332 410.668V357.332C277.332 336.746 294.078 320 314.668 320H410.668C431.254 320 448 336.746 448 357.332V410.668C448 431.254 431.254 448 410.668 448ZM314.668 352C311.723 352 309.332 354.391 309.332 357.332V410.668C309.332 413.609 311.723 416 314.668 416H410.668C413.609 416 416 413.609 416 410.668V357.332C416 354.391 413.609 352 410.668 352H314.668Z" fill="black"/>
<path d="M410.668 277.332H314.668C294.078 277.332 277.332 260.586 277.332 240V101.332C277.332 80.7461 294.078 64 314.668 64H410.668C431.254 64 448 80.7461 448 101.332V240C448 260.586 431.254 277.332 410.668 277.332ZM314.668 96C311.723 96 309.332 98.3906 309.332 101.332V240C309.332 242.945 311.723 245.332 314.668 245.332H410.668C413.609 245.332 416 242.945 416 240V101.332C416 98.3906 413.609 96 410.668 96H314.668Z" fill="black"/>
<path d="M197.332 448H101.332C80.7461 448 64 431.254 64 410.668V272C64 251.414 80.7461 234.668 101.332 234.668H197.332C217.922 234.668 234.668 251.414 234.668 272V410.668C234.668 431.254 217.922 448 197.332 448ZM101.332 266.668C98.3906 266.668 96 269.055 96 272V410.668C96 413.609 98.3906 416 101.332 416H197.332C200.277 416 202.668 413.609 202.668 410.668V272C202.668 269.055 200.277 266.668 197.332 266.668H101.332Z" fill="black"/>
<path d="M453.332 512H58.668C26.3047 512 0 485.695 0 453.332V58.668C0 26.3047 26.3047 0 58.668 0H453.332C485.695 0 512 26.3047 512 58.668V453.332C512 485.695 485.695 512 453.332 512ZM58.668 32C43.9688 32 32 43.9688 32 58.668V453.332C32 468.031 43.9688 480 58.668 480H453.332C468.031 480 480 468.031 480 453.332V58.668C480 43.9688 468.031 32 453.332 32H58.668Z" fill="black"/>
</g>
<defs>
<clipPath id="clip0">
<rect width="512" height="512" fill="white"/>
</clipPath>
</defs>
</svg>
