<svg width="512" height="512" viewBox="0 0 512 512" fill="none" xmlns="http://www.w3.org/2000/svg">
<g clip-path="url(#clip0)">
<path d="M256 362.668C247.168 362.668 240 355.5 240 346.668V16C240 7.16797 247.168 0 256 0C264.832 0 272 7.16797 272 16V346.668C272 355.5 264.832 362.668 256 362.668Z" fill="black"/>
<path d="M256 362.668C251.902 362.668 247.809 361.109 244.691 357.973L159.359 272.641C153.109 266.391 153.109 256.258 159.359 250.004C165.609 243.754 175.742 243.754 181.996 250.004L256.02 324.031L330.047 250.004C336.297 243.754 346.434 243.754 352.684 250.004C358.934 256.258 358.934 266.391 352.684 272.641L267.348 357.973C264.191 361.109 260.098 362.668 256 362.668Z" fill="black"/>
<path d="M453.332 512H58.668C26.3047 512 0 485.695 0 453.332V357.332C0 348.5 7.16797 341.332 16 341.332C24.832 341.332 32 348.5 32 357.332V453.332C32 468.031 43.9688 480 58.668 480H453.332C468.031 480 480 468.031 480 453.332V357.332C480 348.5 487.168 341.332 496 341.332C504.832 341.332 512 348.5 512 357.332V453.332C512 485.695 485.695 512 453.332 512Z" fill="black"/>
</g>
<defs>
<clipPath id="clip0">
<rect width="512" height="512" fill="white"/>
</clipPath>
</defs>
</svg>
