<svg width="12" height="13" viewBox="0 0 12 13" fill="none" xmlns="http://www.w3.org/2000/svg">
<g clip-path="url(#clip0)">
<path d="M9.11716 12.5H2.86713C2.10861 12.5 1.49219 11.8835 1.49219 11.125V4.625C1.49219 4.418 1.66019 4.25 1.86719 4.25C2.07419 4.25 2.24219 4.418 2.24219 4.625V11.125C2.24219 11.4695 2.52261 11.75 2.86713 11.75H9.11716C9.46167 11.75 9.74219 11.4695 9.74219 11.125V4.625C9.74219 4.418 9.91019 4.25 10.1172 4.25C10.3242 4.25 10.4922 4.418 10.4922 4.625V11.125C10.4922 11.8835 9.87567 12.5 9.11716 12.5Z" fill="black"/>
<path d="M11.1172 5H0.867188C0.660187 5 0.492188 4.832 0.492188 4.625V3.37503C0.492188 2.61652 1.1087 2 1.86722 2H10.1172C10.8757 2 11.4922 2.61652 11.4922 3.37503V4.625C11.4922 4.832 11.3242 5 11.1172 5ZM1.24219 4.25H10.7422V3.37503C10.7422 3.03052 10.4617 2.75 10.1172 2.75H1.86722C1.52271 2.75 1.24219 3.03052 1.24219 3.37503V4.25Z" fill="black"/>
<path d="M8.11716 2.75C7.91016 2.75 7.74216 2.582 7.74216 2.375V1.37497C7.74216 1.30603 7.68622 1.25 7.61719 1.25H4.36716C4.29822 1.25 4.24219 1.30603 4.24219 1.37497V2.375C4.24219 2.582 4.07419 2.75 3.86719 2.75C3.66019 2.75 3.49219 2.582 3.49219 2.375V1.37497C3.49219 0.892487 3.88467 0.5 4.36716 0.5H7.61719C8.09967 0.5 8.49216 0.892487 8.49216 1.37497V2.375C8.49216 2.582 8.32416 2.75 8.11716 2.75V2.75Z" fill="black"/>
<path d="M5.99219 10.5C5.78519 10.5 5.61719 10.332 5.61719 10.125V6.875C5.61719 6.668 5.78519 6.5 5.99219 6.5C6.19919 6.5 6.36719 6.668 6.36719 6.875V10.125C6.36719 10.332 6.19919 10.5 5.99219 10.5V10.5Z" fill="black"/>
<path d="M3.86719 10.5C3.66019 10.5 3.49219 10.332 3.49219 10.125V6.875C3.49219 6.668 3.66019 6.5 3.86719 6.5C4.07419 6.5 4.24219 6.668 4.24219 6.875V10.125C4.24219 10.332 4.07419 10.5 3.86719 10.5V10.5Z" fill="black"/>
<path d="M8.11719 10.5C7.91019 10.5 7.74219 10.332 7.74219 10.125V6.875C7.74219 6.668 7.91019 6.5 8.11719 6.5C8.32419 6.5 8.49219 6.668 8.49219 6.875V10.125C8.49219 10.332 8.32419 10.5 8.11719 10.5V10.5Z" fill="black"/>
</g>
<defs>
<clipPath id="clip0">
<rect width="12" height="12" fill="white" transform="translate(0 0.5)"/>
</clipPath>
</defs>
</svg>
