<svg width="12" height="12" viewBox="0 0 12 12" fill="none" xmlns="http://www.w3.org/2000/svg">
<g clip-path="url(#clip0)">
<path d="M10.625 12H1.37503C0.616516 12 0 11.3835 0 10.625V1.37503C0 0.616516 0.616516 0 1.37503 0H9.129C9.62247 0 10.106 0.200043 10.4545 0.5495L11.4505 1.5455C11.805 1.89999 12 2.37103 12 2.87146V10.625C12 11.3835 11.3835 12 10.625 12V12ZM1.37503 0.75C1.03052 0.75 0.75 1.03052 0.75 1.37503V10.625C0.75 10.9695 1.03052 11.25 1.37503 11.25H10.625C10.9695 11.25 11.25 10.9695 11.25 10.625V2.87146C11.25 2.57098 11.133 2.28854 10.9205 2.07596L9.9245 1.07996C9.71503 0.870026 9.42554 0.75 9.129 0.75H1.37503Z" fill="white"/>
<path d="M7.62494 3.49997H2.37494C2.16794 3.49997 1.99994 3.33197 1.99994 3.12497V0.375C1.99994 0.167999 2.16794 0 2.37494 0C2.58194 0 2.74994 0.167999 2.74994 0.375V2.74997H7.24994V0.375C7.24994 0.167999 7.41794 0 7.62494 0C7.83194 0 7.99994 0.167999 7.99994 0.375V3.12497C7.99994 3.33197 7.83194 3.49997 7.62494 3.49997Z" fill="white"/>
<path d="M6 9.75C4.75946 9.75 3.75 8.74054 3.75 7.5C3.75 6.25946 4.75946 5.25 6 5.25C7.24054 5.25 8.25 6.25946 8.25 7.5C8.25 8.74054 7.24054 9.75 6 9.75ZM6 6C5.173 6 4.5 6.673 4.5 7.5C4.5 8.327 5.173 9 6 9C6.827 9 7.5 8.327 7.5 7.5C7.5 6.673 6.827 6 6 6Z" fill="white"/>
</g>
<defs>
<clipPath id="clip0">
<rect width="12" height="12" fill="white"/>
</clipPath>
</defs>
</svg>
