<svg width="17" height="16" viewBox="0 0 17 16" fill="none" xmlns="http://www.w3.org/2000/svg">
<g clip-path="url(#clip0)">
<path d="M7.10672 0.0192566C3.2164 0.0192566 0.0513 3.1757 0.0513 7.05543C0.0513 10.9352 3.21643 14.0916 7.10672 14.0916C10.997 14.0916 14.1622 10.9352 14.1622 7.05543C14.1622 3.1757 10.997 0.0192566 7.10672 0.0192566ZM7.10672 12.9349C3.85409 12.9349 1.20793 10.2972 1.20793 7.0554C1.20793 3.81336 3.85409 1.17585 7.10672 1.17585C10.3594 1.17585 13.0055 3.81336 13.0055 7.0554C13.0055 10.2972 10.3594 12.9349 7.10672 12.9349Z" fill="black"/>
<path d="M15.8809 14.9924L12.0833 11.2141C11.8568 10.9889 11.4907 10.9899 11.2654 11.2162C11.0402 11.4427 11.0412 11.8088 11.2675 12.0341L15.0651 15.8125C15.1781 15.9247 15.3254 15.9807 15.473 15.9807C15.6216 15.9807 15.7701 15.9239 15.883 15.8103C16.1082 15.5838 16.1072 15.2177 15.8809 14.9924Z" fill="black"/>
</g>
<defs>
<clipPath id="clip0">
<rect width="16" height="16" fill="white" transform="translate(0.0513)"/>
</clipPath>
</defs>
</svg>
