<svg width="12" height="13" viewBox="0 0 12 13" fill="none" xmlns="http://www.w3.org/2000/svg">
<g clip-path="url(#clip0)">
<path d="M9.61719 4.25C8.58374 4.25 7.74219 3.409 7.74219 2.375C7.74219 1.341 8.58374 0.5 9.61719 0.5C10.6507 0.5 11.4922 1.341 11.4922 2.375C11.4922 3.409 10.6507 4.25 9.61719 4.25ZM9.61719 1.25C8.99719 1.25 8.49219 1.75446 8.49219 2.375C8.49219 2.99554 8.99719 3.5 9.61719 3.5C10.2372 3.5 10.7422 2.99554 10.7422 2.375C10.7422 1.75446 10.2372 1.25 9.61719 1.25Z" fill="black"/>
<path d="M9.61719 12.5C8.58374 12.5 7.74219 11.659 7.74219 10.625C7.74219 9.591 8.58374 8.75 9.61719 8.75C10.6507 8.75 11.4922 9.591 11.4922 10.625C11.4922 11.659 10.6507 12.5 9.61719 12.5ZM9.61719 9.5C8.99719 9.5 8.49219 10.0045 8.49219 10.625C8.49219 11.2455 8.99719 11.75 9.61719 11.75C10.2372 11.75 10.7422 11.2455 10.7422 10.625C10.7422 10.0045 10.2372 9.5 9.61719 9.5Z" fill="black"/>
<path d="M2.36719 8.375C1.33365 8.375 0.492188 7.534 0.492188 6.5C0.492188 5.466 1.33365 4.625 2.36719 4.625C3.40073 4.625 4.24219 5.466 4.24219 6.5C4.24219 7.534 3.40073 8.375 2.36719 8.375ZM2.36719 5.375C1.74719 5.375 1.24219 5.87946 1.24219 6.5C1.24219 7.12054 1.74719 7.625 2.36719 7.625C2.98718 7.625 3.49219 7.12054 3.49219 6.5C3.49219 5.87946 2.98718 5.375 2.36719 5.375Z" fill="black"/>
<path d="M3.67269 6.13498C3.54213 6.13498 3.41515 6.06696 3.34667 5.94602C3.24413 5.76602 3.30666 5.53696 3.48665 5.43451L8.12616 2.78946C8.30561 2.68601 8.53513 2.74899 8.63712 2.92954C8.73966 3.10953 8.67713 3.3385 8.49713 3.44104L3.85762 6.086C3.79912 6.11896 3.73567 6.13498 3.67269 6.13498V6.13498Z" fill="black"/>
<path d="M8.31178 10.26C8.24879 10.26 8.18525 10.244 8.12675 10.2105L3.48722 7.5655C3.30723 7.46306 3.24479 7.23399 3.34724 7.054C3.44923 6.87355 3.67829 6.81102 3.85828 6.91402L8.49772 9.55896C8.67771 9.6615 8.74024 9.89047 8.6378 10.0705C8.56876 10.192 8.44178 10.26 8.31178 10.26Z" fill="black"/>
</g>
<defs>
<clipPath id="clip0">
<rect width="12" height="12" fill="white" transform="translate(0 0.5)"/>
</clipPath>
</defs>
</svg>
